<svg width="67" height="10" viewBox="0 0 67 10" fill="none" xmlns="http://www.w3.org/2000/svg">
<path d="M5.25762 0L6.88223 3.29127L10.5152 3.82229L7.88643 6.38275L8.50683 10L5.25762 8.29127L2.00841 10L2.62881 6.38275L0 3.82229L3.63302 3.29127L5.25762 0Z" fill="#3D3D3F"/>
<path d="M19.2728 0L20.8974 3.29127L24.5304 3.82229L21.9016 6.38275L22.522 10L19.2728 8.29127L16.0235 10L16.6439 6.38275L14.0151 3.82229L17.6482 3.29127L19.2728 0Z" fill="#3D3D3F"/>
<path d="M33.2879 0L34.9125 3.29127L38.5455 3.82229L35.9167 6.38275L36.5371 10L33.2879 8.29127L30.0387 10L30.6591 6.38275L28.0303 3.82229L31.6633 3.29127L33.2879 0Z" fill="#3D3D3F"/>
<path d="M47.303 0L48.9276 3.29127L52.5607 3.82229L49.9318 6.38275L50.5522 10L47.303 8.29127L44.0538 10L44.6742 6.38275L42.0454 3.82229L45.6784 3.29127L47.303 0Z" fill="#3D3D3F"/>
<path d="M61.3182 0L62.9428 3.29127L66.5758 3.82229L63.947 6.38275L64.5674 10L61.3182 8.29127L58.069 10L58.6894 6.38275L56.0605 3.82229L59.6936 3.29127L61.3182 0Z" fill="#3D3D3F"/>
</svg>
